<?xml version="1.0" encoding="UTF-8" standalone="no"?>
<!-- Created with Inkscape (http://www.inkscape.org/) -->

<svg
   xmlns:dc="http://purl.org/dc/elements/1.1/"
   xmlns:cc="http://creativecommons.org/ns#"
   xmlns:rdf="http://www.w3.org/1999/02/22-rdf-syntax-ns#"
   xmlns:svg="http://www.w3.org/2000/svg"
   xmlns="http://www.w3.org/2000/svg"
   xmlns:sodipodi="http://sodipodi.sourceforge.net/DTD/sodipodi-0.dtd"
   xmlns:inkscape="http://www.inkscape.org/namespaces/inkscape"
   width="19.608965mm"
   height="17.032524mm"
   viewBox="0 0 19.608965 17.032524"
   version="1.1"
   id="svg8"
   inkscape:version="0.92.1 r15371"
   sodipodi:docname="circular.svg">
  <defs
     id="defs2" />
  <sodipodi:namedview
     id="base"
     pagecolor="#ffffff"
     bordercolor="#666666"
     borderopacity="1.0"
     inkscape:pageopacity="0.0"
     inkscape:pageshadow="2"
     inkscape:zoom="0.24748737"
     inkscape:cx="-373.6906"
     inkscape:cy="260.67121"
     inkscape:document-units="mm"
     inkscape:current-layer="svg8"
     showgrid="false"
     fit-margin-top="0"
     fit-margin-left="0"
     fit-margin-right="0"
     fit-margin-bottom="0"
     units="mm"
     inkscape:window-width="1276"
     inkscape:window-height="883"
     inkscape:window-x="50"
     inkscape:window-y="50"
     inkscape:window-maximized="0" />
  <metadata
     id="metadata5">
    <rdf:RDF>
      <cc:Work
         rdf:about="">
        <dc:format>image/svg+xml</dc:format>
        <dc:type
           rdf:resource="http://purl.org/dc/dcmitype/StillImage" />
        <dc:title></dc:title>
      </cc:Work>
    </rdf:RDF>
  </metadata>
  <path
     inkscape:connector-curvature="0"
     id="path4548"
     d="m 16.094928,16.29281 c -0.53768,-0.74134 -0.53207,-0.8495 0.0836,-1.60981 2.86101,-3.5332 0.22456,-9.21494 -4.27594,-9.21494 -1.21061,0 -1.1865,-0.11976 -0.45041,2.23653 0.13457,0.43077 -0.6378,0.0155 -2.2966505,-1.23472 -1.37467,-1.03607 -2.50816,-1.9975 -2.51887,-2.13651 -0.02516,-0.32662 4.6311305,-3.85729 4.8277405,-3.66068 0.0819,0.0819 -0.0228,0.4695 -0.23252,0.86141 -0.74913,1.39978 -0.48756,1.72112 1.53769,1.88907 5.89584,0.48893 8.89771,7.65736 5.25128,12.54004 -1.00876,1.35075 -1.1658,1.37763 -1.92591,0.32961 z M 8.1462275,15.9001 c 0.82572,-2.15178 0.7632,-2.31794 -0.873447,-2.32146 C 5.0866525,13.57364 2.3295458,11.92385 1.1528458,9.91596 -0.50812023,7.08174 -0.35665323,3.10177 1.4930868,0.97577 L 2.3420548,0 3.1151408,0.76199 3.8882258,1.52398 3.0604388,2.6865 c -1.133317,1.5916 -1.138164,4.2445 -0.01109,6.06815 0.926347,1.49886 3.0052507,2.71063 4.6503457,2.71063 0.997093,0 1.088843,-0.0868 0.897503,-0.84917 -0.11722,-0.46705 -0.32181,-1.1324 -0.45464,-1.47856 -0.14112,-0.36774 0.80346,0.16861 2.2721205,1.29014 1.3825,1.05574 2.52238,2.01518 2.53307,2.13208 0.0188,0.20537 -3.5193805,3.06191 -4.5384405,3.66412 -0.3799,0.2245 -0.44346,0.14628 -0.26308,-0.32379 z"
     style="display:inline;fill:#98c85f;stroke-width:0.35277778"
     inkscape:label="circular-path" />
</svg>
