<?xml version="1.0" encoding="UTF-8" standalone="no"?>
<!-- Created with Inkscape (http://www.inkscape.org/) -->

<svg
   xmlns:dc="http://purl.org/dc/elements/1.1/"
   xmlns:cc="http://creativecommons.org/ns#"
   xmlns:rdf="http://www.w3.org/1999/02/22-rdf-syntax-ns#"
   xmlns:svg="http://www.w3.org/2000/svg"
   xmlns="http://www.w3.org/2000/svg"
   xmlns:xlink="http://www.w3.org/1999/xlink"
   xmlns:sodipodi="http://sodipodi.sourceforge.net/DTD/sodipodi-0.dtd"
   xmlns:inkscape="http://www.inkscape.org/namespaces/inkscape"
   width="500"
   height="250"
   viewBox="0 0 132.29166 66.145835"
   version="1.1"
   id="svg4776"
   inkscape:version="0.92.1 r15371"
   sodipodi:docname="ribbon.svg"
   inkscape:export-xdpi="98.614021"
   inkscape:export-ydpi="98.614021">
  <defs
     id="defs4770" />
  <sodipodi:namedview
     id="base"
     pagecolor="#ffffff"
     bordercolor="#666666"
     borderopacity="1.0"
     inkscape:pageopacity="0.0"
     inkscape:pageshadow="2"
     inkscape:zoom="0.6945"
     inkscape:cx="-211.10826"
     inkscape:cy="-78.205537"
     inkscape:document-units="mm"
     inkscape:current-layer="layer1"
     showgrid="false"
     units="px"
     inkscape:window-width="1920"
     inkscape:window-height="1018"
     inkscape:window-x="-8"
     inkscape:window-y="-8"
     inkscape:window-maximized="1" />
  <metadata
     id="metadata4773">
    <rdf:RDF>
      <cc:Work
         rdf:about="">
        <dc:format>image/svg+xml</dc:format>
        <dc:type
           rdf:resource="http://purl.org/dc/dcmitype/StillImage" />
        <dc:title />
      </cc:Work>
    </rdf:RDF>
  </metadata>
  <g
     inkscape:label="レイヤー 1"
     inkscape:groupmode="layer"
     id="layer1"
     transform="translate(0,-230.85415)">
    <g
       id="g5357"
       transform="matrix(0.25153306,0,0,0.30847264,1.4894763,185.02271)"
       inkscape:export-xdpi="98.614021"
       inkscape:export-ydpi="98.614021">
      <path
         id="path5321"
         d="m 412.243,298.758 c -0.156,-1.422 -0.313,-2.844 -0.47,-4.268 -2.487,-22.551 -5.124,-45.077 -7.919,-67.579 0.407,-0.069 0.814,-0.138 1.223,-0.207 6.799,-1.169 13.591,-2.435 20.373,-3.796 0,-0.002 2.189,-0.367 5.69,-0.933 4.799,-0.783 12.087,-1.991 19.621,-3.213 24.905,-4.119 37.339,-0.657 37.358,-0.579 -0.46,1.372 -0.925,2.745 -1.393,4.119 -3.12,9.147 -6.421,18.284 -9.905,27.403 -0.088,0.053 20.206,18.247 30.465,28.309 2.191,2.193 3.869,4.024 4.714,5.268 -10.926,0.996 -39.922,7.438 -55.568,10.138 -12.929,2.448 -31.299,6.934 -35.849,7.811 -4.534,0.926 -7.766,0.512 -8.34,-2.473 z"
         style="fill:#ffd01f"
         inkscape:connector-curvature="0" />
      <path
         id="path5323"
         d="m 405.078,226.704 c 6.799,-1.169 13.591,-2.435 20.373,-3.796 0,-0.002 2.189,-0.367 5.69,-0.933 0.253,1.053 0.507,2.102 0.76,3.154 3.445,19.164 6.806,38.347 10.08,57.549 -12.91,-18.394 -25.212,-37.06 -36.903,-55.974 z"
         style="fill:#ff8d5f"
         inkscape:connector-curvature="0" />
      <g
         id="g5329">
        <path
           id="path5325"
           d="m 412.243,298.758 c -0.372,-1.917 -0.746,-3.835 -1.119,-5.753 0.115,0.598 0.335,1.089 0.649,1.485 1.252,1.61 4.032,1.741 7.636,0.999 4.512,-0.869 22.758,-5.329 35.596,-7.755 14.311,-2.501 39.851,-8.018 52.281,-9.721 2.191,2.193 3.869,4.024 4.714,5.268 -10.926,0.996 -39.922,7.438 -55.568,10.138 -12.929,2.448 -31.299,6.934 -35.849,7.811 -4.534,0.927 -7.766,0.513 -8.34,-2.472 z"
           style="fill:#ff9f3f"
           inkscape:connector-curvature="0" />
        <path
           id="path5327"
           d="m 404.836,231.765 c -0.327,-1.618 -0.654,-3.235 -0.981,-4.855 0.407,-0.069 0.814,-0.138 1.223,-0.207 6.799,-1.169 13.591,-2.435 20.373,-3.796 0,-0.002 2.189,-0.367 5.69,-0.933 4.799,-0.783 12.087,-1.991 19.621,-3.213 24.905,-4.119 37.339,-0.657 37.358,-0.579 -0.46,1.372 -0.925,2.745 -1.393,4.119 -5.045,-0.835 -16.549,-1.723 -34.677,1.244 -7.582,1.231 -14.917,2.456 -19.748,3.245 -3.525,0.579 -5.732,0.943 -5.728,0.943 -6.825,1.371 -13.66,2.647 -20.506,3.826 -0.411,0.07 -0.822,0.139 -1.232,0.206 z"
           style="fill:#ff9f3f"
           inkscape:connector-curvature="0" />
      </g>
      <path
         id="path5331"
         d="m 35.179,249.704 c -4.005,-10.49 -7.769,-20.998 -11.292,-31.52 0.021,-0.074 12.448,-3.542 37.358,0.579 6.192,1.002 12.21,2.006 16.834,2.758 5.095,0.835 8.465,1.382 8.468,1.385 6.23,1.249 12.467,2.419 18.713,3.505 0.962,0.17 1.926,0.337 2.886,0.5 -2.969,23.924 -5.762,47.872 -8.383,71.849 -0.577,2.99 -3.797,3.399 -8.334,2.474 -4.555,-0.875 -22.925,-5.366 -35.857,-7.813 C 39.925,290.716 10.921,284.279 0,283.282 5.021,276.485 35.41,249.858 35.179,249.704 Z"
         style="fill:#ffd01f"
         inkscape:connector-curvature="0" />
      <path
         id="path5333"
         d="m 77.358,224.462 c 0.24,-0.981 0.481,-1.961 0.721,-2.942 5.095,0.835 8.465,1.382 8.468,1.385 6.23,1.249 12.467,2.419 18.713,3.505 -11.178,18.986 -22.922,37.752 -35.23,56.27 2.284,-19.434 4.726,-38.84 7.328,-58.218 z"
         style="fill:#ff8d5f"
         inkscape:connector-curvature="0" />
      <g
         id="g5339">
        <path
           id="path5335"
           d="m 99.757,298.758 c 0.373,-1.917 0.745,-3.835 1.119,-5.753 -0.12,0.598 -0.335,1.089 -0.646,1.485 -1.254,1.61 -4.04,1.741 -7.638,0.999 -4.521,-0.867 -22.741,-5.324 -35.599,-7.755 -14.306,-2.496 -39.848,-8.021 -52.276,-9.721 -2.187,2.188 -3.88,4.029 -4.717,5.268 10.925,0.988 39.918,7.431 55.564,10.136 12.94,2.455 31.304,6.939 35.854,7.813 4.541,0.927 7.76,0.51 8.339,-2.472 z"
           style="fill:#ff9f3f"
           inkscape:connector-curvature="0" />
        <path
           id="path5337"
           d="m 107.166,231.767 c 0.327,-1.619 0.654,-3.237 0.981,-4.856 -0.407,-0.067 -0.811,-0.136 -1.219,-0.205 -6.801,-1.17 -13.596,-2.437 -20.381,-3.8 -0.003,0.005 -2.188,-0.362 -5.684,-0.93 -4.802,-0.785 -12.09,-1.993 -19.627,-3.216 -24.905,-4.122 -37.335,-0.657 -37.358,-0.577 0.462,1.372 0.927,2.745 1.395,4.119 5.055,-0.832 16.555,-1.72 34.676,1.244 7.587,1.238 14.917,2.455 19.754,3.247 3.516,0.58 5.722,0.941 5.722,0.939 6.827,1.372 13.666,2.65 20.512,3.829 0.411,0.068 0.819,0.138 1.229,0.206 z"
           style="fill:#ff9f3f"
           inkscape:connector-curvature="0" />
      </g>
      <g
         id="g5351">
        <g
           id="g5343">
          <path
             id="path5341"
             d="m 441.977,282.674 c 0.47,1.974 -2.623,5.48 -5.987,6.245 -3.344,0.774 -13.801,3.035 -17.541,3.776 -5.228,1.061 -6.719,3.407 -6.206,6.06 -3.11,-15.999 -6.224,-31.998 -9.334,-47.996 11.938,7.856 24.238,15.432 36.893,22.706 0.724,3.07 1.449,6.14 2.175,9.209 z"
             style="fill:#9f3900"
             inkscape:connector-curvature="0" />
        </g>
        <g
           id="g5349">
          <path
             id="path5345"
             d="m 70.024,282.676 c -0.471,1.978 2.633,5.482 5.987,6.243 3.351,0.786 13.799,3.036 17.546,3.777 5.233,1.06 6.721,3.409 6.208,6.061 3.11,-15.999 6.222,-31.997 9.334,-47.996 -11.941,7.854 -24.245,15.43 -36.899,22.706 -0.725,3.068 -1.449,6.138 -2.176,9.209 z"
             style="fill:#9f3900"
             inkscape:connector-curvature="0" />
          <path
             id="path5347"
             d="m 78.817,279.785 c 116.644,26.348 237.727,26.348 354.369,-0.002 6.581,-1.501 8.323,0.917 8.791,2.891 -5.426,-22.967 -10.851,-45.934 -16.276,-68.899 -0.47,-1.977 -2.115,-4.415 -8.113,-3.049 -106.375,24.03 -216.796,24.03 -323.171,0 -6,-1.364 -7.649,1.071 -8.116,3.049 -5.426,22.965 -10.851,45.934 -16.277,68.901 0.467,-1.976 2.215,-4.395 8.793,-2.891 z"
             style="fill:#ffe01f"
             inkscape:connector-curvature="0" />
        </g>
      </g>
      <path
         id="path5353"
         d="m 441.977,282.674 c -0.468,-1.975 -2.213,-4.39 -8.791,-2.891 -116.643,26.35 -237.723,26.351 -354.369,0.002 -6.583,-1.493 -8.324,0.911 -8.792,2.891 0.415,-1.754 0.829,-3.508 1.244,-5.263 0.471,-1.979 2.203,-4.395 8.741,-2.902 115.86,26.172 236.125,26.172 351.985,-0.002 6.537,-1.483 8.27,0.928 8.738,2.904 0.413,1.753 0.827,3.507 1.244,5.261 z"
         style="fill:#ff9f3f"
         inkscape:connector-curvature="0" />
      <path
         id="path5355"
         d="m 426.943,219.037 c -0.47,-1.975 -2.118,-4.409 -8.164,-3.036 -107.161,24.206 -218.393,24.206 -325.552,0 -6.054,-1.371 -7.709,1.06 -8.169,3.036 0.415,-1.754 0.829,-3.508 1.243,-5.262 0.473,-1.978 2.113,-4.409 8.116,-3.049 106.375,24.03 216.796,24.03 323.171,0 5.999,-1.366 7.644,1.068 8.113,3.049 0.413,1.754 0.828,3.508 1.242,5.262 z"
         style="fill:#ff9f3f"
         inkscape:connector-curvature="0" />
    </g>
    <text
       xml:space="preserve"
       style="font-style:normal;font-weight:normal;font-size:11.41958523px;line-height:1.25;font-family:sans-serif;letter-spacing:0px;word-spacing:0px;fill:#2e8b57;fill-opacity:1;stroke:none;stroke-width:0.28548965"
       id="text4503"
       x="0.54923826"
       y="-47.365158"
       transform="matrix(1.0107963,0,0,0.98931904,24.382049,-63.62191)"><textPath
         xlink:href="#path4505"
         id="textPath4507"
         style="fill:#2e8b57;stroke-width:0.28548965">TextReEncoder</textPath></text>
    <path
       style="fill:none;stroke:none;stroke-width:0.35478932px;stroke-linecap:butt;stroke-linejoin:miter;stroke-opacity:1"
       d="M 0.73973535,330.56949 C 35.793762,344.78584 84.96976,331.72721 87.595629,328.66369"
       id="path4505"
       inkscape:connector-curvature="0"
       sodipodi:nodetypes="cc" />
  </g>
</svg>
